Coordinates
version=1
nRows=27
nColumns=12
inDegrees=yes

Units are S.I. units (second, meters, Newtons, ...)
Angles are in degrees

endheader
time	SC_y	SC_z	SC_x	AC_y	AC_z	AC_x	GH_y	GH_z	GH_yy	EL_x	PS_y
       0.0              -38.95          30.32          16.56          63.23         -3.797         -10.96          147.0          26.35         -95.64          21.42          108.9
   0.01817              -38.95          30.32          16.56          63.23         -3.795         -10.96          147.0          26.34         -95.64          21.42          108.9
   0.03634              -38.95          30.31          16.56          63.23         -3.794         -10.96          146.9          26.34         -95.64          21.42          108.9
   0.05451              -38.95          30.31          16.56          63.23         -3.792         -10.95          146.9          26.33         -95.65          21.42          108.9
   0.07268              -38.95           30.3          16.56          63.23          -3.79         -10.95          146.9          26.32         -95.65          21.43          108.9
   0.09085              -38.96           30.3          16.56          63.23         -3.787         -10.94          146.9          26.32         -95.65          21.43          108.9
     0.109              -38.96          30.29          16.56          63.23         -3.785         -10.94          146.9          26.31         -95.66          21.43          108.9
    0.1272              -38.96          30.29          16.56          63.23         -3.783         -10.93          146.8           26.3         -95.66          21.43          108.9
    0.1454              -38.96          30.28          16.56          63.23          -3.78         -10.93          146.8          26.29         -95.67          21.44          108.9
    0.1635              -38.96          30.27          16.56          63.23         -3.777         -10.92          146.8          26.28         -95.67          21.44          108.9
    0.1817              -38.96          30.27          16.55          63.23         -3.774         -10.91          146.7          26.27         -95.68          21.45          108.9
    0.1999              -38.97          30.26          16.55          63.23         -3.771         -10.91          146.7          26.26         -95.69          21.45          108.9
     0.218              -38.97          30.25          16.55          63.23         -3.767          -10.9          146.7          26.25         -95.69          21.46          108.9
    0.2362              -38.97          30.24          16.55          63.24         -3.763         -10.89          146.6          26.24          -95.7          21.46          108.9
    0.2544              -38.97          30.23          16.55          63.24         -3.759         -10.88          146.6          26.22         -95.71          21.47          108.9
    0.2725              -38.98          30.22          16.55          63.24         -3.755         -10.87          146.5          26.21         -95.72          21.47          108.9
    0.2907              -38.98          30.21          16.54          63.24          -3.75         -10.86          146.5          26.19         -95.73          21.48          108.9
    0.3089              -38.98           30.2          16.54          63.24         -3.744         -10.85          146.4          26.18         -95.74          21.49          109.0
     0.327              -38.98          30.18          16.54          63.24         -3.739         -10.84          146.4          26.16         -95.75           21.5          109.0
    0.3452              -38.99          30.17          16.54          63.24         -3.732         -10.83          146.3          26.14         -95.76           21.5          109.0
    0.3634              -38.99          30.15          16.53          63.24         -3.725         -10.81          146.2          26.11         -95.77          21.51          109.0
    0.3816               -39.0          30.14          16.53          63.25         -3.717         -10.79          146.2          26.09         -95.79          21.52          109.0
    0.3997               -39.0          30.12          16.53          63.25         -3.709         -10.78          146.1          26.06         -95.81          21.54          109.0
    0.4179              -39.01          30.09          16.52          63.25           -3.7         -10.75          146.0          26.03         -95.82          21.55          109.0
    0.4361              -39.01          30.07          16.52          63.25         -3.689         -10.73          145.9           26.0         -95.84          21.56          109.0
    0.4542              -39.02          30.04          16.51          63.25         -3.677         -10.71          145.7          25.96         -95.87          21.58          109.0
    0.4724              -39.03          30.01          16.51          63.26         -3.664         -10.68          145.6          25.92         -95.89           21.6          109.1
